<?xml version="1.0" encoding="UTF-8"?>
<svg xmlns="http://www.w3.org/2000/svg" xmlns:xlink="http://www.w3.org/1999/xlink" viewBox="0 0 50 50" version="1.1">
<g id="surface1">
<path style=" " d="M 36.875 4.0625 C 36.546875 4.0625 36.25 4.199219 36.0625 4.46875 L 23.90625 22 C 23.828125 22.113281 23.777344 22.269531 23.75 22.40625 C 23.492188 23.773438 23.984375 25.269531 25.1875 26.71875 C 27.152344 29.085938 30.675781 30.9375 33.1875 30.9375 C 33.472656 30.9375 33.746094 30.890625 34 30.84375 C 34.300781 30.789063 34.542969 30.613281 34.6875 30.34375 L 47.84375 5.53125 C 48.007813 5.222656 47.992188 4.832031 47.8125 4.53125 C 47.632813 4.230469 47.289063 4.0625 46.9375 4.0625 Z M 21.71875 23.71875 C 15 25.257813 13.367188 30.679688 11.78125 35.9375 C 10.214844 41.128906 8.734375 46.03125 2.6875 48.0625 C 2.222656 48.21875 1.921875 48.671875 2 49.15625 C 2.078125 49.640625 2.511719 50 3 50 C 22.550781 50 32.464844 47.335938 33.59375 32.875 C 33.449219 32.882813 33.335938 32.9375 33.1875 32.9375 C 30.097656 32.9375 25.992188 30.816406 23.65625 28 C 22.335938 26.410156 21.835938 24.929688 21.71875 23.71875 Z "/>
</g>
</svg>
