<?xml version="1.0"?>
<svg xmlns="http://www.w3.org/2000/svg" viewBox="0 0 30 30">
    <path style="line-height:normal;text-indent:0;text-align:start;text-decoration-line:none;text-decoration-style:solid;text-decoration-color:#000;text-transform:none;block-progression:tb;isolation:auto;mix-blend-mode:normal" d="M 20 3 L 20 7 L 13 7 C 8.053124 7 4 11.053124 4 16 A 2.0002 2.0002 0 0 0 4.1582031 16.779297 A 2.0002 2.0002 0 0 0 4.1582031 16.78125 C 4.5765992 21.347984 8.3295881 25 13 25 L 16 25 A 2.0002 2.0002 0 1 0 16 21 L 13 21 C 10.214876 21 8 18.785124 8 16 C 8 13.214876 10.214876 11 13 11 L 20 11 L 20 15 L 26 9 L 20 3 z" font-weight="400" font-family="sans-serif" white-space="normal" overflow="visible"/>
</svg>
