<?xml version="1.0"?>
<svg xmlns="http://www.w3.org/2000/svg" viewBox="0 0 30 30">
    <path style="line-height:normal;text-indent:0;text-align:start;text-decoration-line:none;text-decoration-style:solid;text-decoration-color:#000;text-transform:none;block-progression:tb;isolation:auto;mix-blend-mode:normal" d="M 19 3.015625 C 18.117477 3.015625 17.235919 3.3500183 16.568359 4.0175781 L 4.0195312 16.568359 C 2.6844117 17.903479 2.6844117 20.098474 4.0195312 21.433594 L 8.5683594 25.982422 C 9.9032317 27.317294 12.096768 27.317294 13.431641 25.982422 L 25.982422 13.431641 C 27.317541 12.096521 27.317541 9.901526 25.982422 8.5664062 L 21.433594 4.0175781 C 20.766034 3.3500183 19.882523 3.015625 19 3.015625 z M 10.707031 12.707031 L 17.292969 19.292969 L 12.017578 24.568359 C 11.44645 25.139487 10.55355 25.139487 9.9824219 24.568359 L 5.4335938 20.019531 C 4.8627133 19.448651 4.8627133 18.553302 5.4335938 17.982422 L 10.707031 12.707031 z" font-weight="400" font-family="sans-serif" white-space="normal" overflow="visible"/>
</svg>
