<?xml version="1.0"?>
<svg xmlns="http://www.w3.org/2000/svg" viewBox="0 0 24 24" width="24px" height="24px">
    <path d="M 21.808594 0 C 21.652219 0 21.495953 0.0601875 21.376953 0.1796875 L 20.154297 1.4003906 L 22.599609 3.8457031 L 23.820312 2.6230469 C 24.059313 2.3840469 24.059313 1.9977656 23.820312 1.7597656 L 22.240234 0.1796875 C 22.120734 0.0601875 21.964969 0 21.808594 0 z M 19.289062 2.265625 L 12 9.5566406 L 12 12 L 14.443359 12 L 21.734375 4.7089844 L 19.289062 2.265625 z M 5 3 C 3.897 3 3 3.897 3 5 L 3 19 C 3 20.103 3.897 21 5 21 L 19 21 C 20.103 21 21 20.103 21 19 L 21 8.2714844 L 19.001953 10.271484 L 19.001953 19 L 5 19 L 5 9 L 9.7285156 9 L 11.728516 7 L 5 7 L 5 5 L 13.728516 5 L 15.728516 3 L 5 3 z"/>
</svg>
