<?xml version="1.0" encoding="UTF-8"?>
<svg xmlns="http://www.w3.org/2000/svg" xmlns:xlink="http://www.w3.org/1999/xlink" viewBox="0 0 24 24" version="1.1">
<g id="surface1">
<path style=" " d="M 20 2 C 18.96875 2 18.140625 2.78125 18.03125 3.78125 L 14.5625 4.78125 C 14.195313 4.3125 13.640625 4 13 4 C 11.894531 4 11 4.894531 11 6 C 11 7.105469 11.894531 8 13 8 C 13.054688 8 13.105469 8.003906 13.15625 8 L 16.53125 14.6875 C 16.441406 14.789063 16.351563 14.882813 16.28125 15 L 11.9375 14.46875 C 11.707031 13.621094 10.921875 13 10 13 C 8.894531 13 8 13.894531 8 15 C 8 15.21875 8.03125 15.429688 8.09375 15.625 L 4.96875 18.25 C 4.683594 18.09375 4.351563 18 4 18 C 2.894531 18 2 18.894531 2 20 C 2 21.105469 2.894531 22 4 22 C 5.105469 22 6 21.105469 6 20 C 6 19.78125 5.96875 19.570313 5.90625 19.375 L 9.03125 16.75 C 9.316406 16.90625 9.648438 17 10 17 C 10.753906 17 11.410156 16.585938 11.75 15.96875 L 16.0625 16.53125 C 16.292969 17.378906 17.078125 18 18 18 C 19.105469 18 20 17.105469 20 16 C 20 14.894531 19.105469 14 18 14 C 17.945313 14 17.894531 13.996094 17.84375 14 L 14.5 7.3125 C 14.761719 7.011719 14.921875 6.636719 14.96875 6.21875 L 18.4375 5.21875 C 18.804688 5.6875 19.359375 6 20 6 C 21.105469 6 22 5.105469 22 4 C 22 2.894531 21.105469 2 20 2 Z "/>
</g>
</svg>
