<svg viewBox="0 0 30 30" xmlns="http://www.w3.org/2000/svg">

 <g>
  <title>background</title>
  <rect fill="none" id="canvas_background" height="402" width="582" y="-1" x="-1"/>
 </g>
 <g>
  <title>Layer 1</title>
  <path id="svg_1" d="m7,5.125c-1.7068,0 -3.05179,1.23339 -3.83594,2.87695c-0.78414,1.64357 -1.16406,3.79077 -1.16406,6.22266c0,2.24834 0.46963,4.59225 1.41602,6.47656c0.1212,0.24133 0.33745,0.39163 0.47851,0.61914c-0.58973,0.71621 -1.62109,2.11719 -1.62109,2.11719a1.00027,1.00027 0 1 0 1.45312,1.375c0,0 0.97463,-1.32726 1.42774,-1.86133c0.79972,0.69762 1.73401,1.17383 2.8457,1.17383c2.22983,0 4.17764,-1.26294 5.83398,-2.8418c0.02029,0.01815 0.02414,0.04669 0.04493,0.06446c0.55028,0.47045 1.29983,0.77734 2.12109,0.77734c1.09671,0 2.01798,-0.55387 2.6875,-1.23828c0.66952,-0.68441 1.15498,-1.51368 1.55859,-2.30859c0.066,-0.12998 0.09673,-0.21412 0.15821,-0.3418c0.02987,0.46925 0.04009,0.94099 0.17968,1.39844c0.09865,0.32327 0.2374,0.65465 0.51954,0.95703c0.28213,0.30237 0.75848,0.5332 1.21875,0.5332c0.4584,0 0.90314,-0.20158 1.19921,-0.45703c0.29607,-0.25545 0.48601,-0.54564 0.64844,-0.83789c0.32487,-0.5845 0.54502,-1.21693 0.80274,-1.80078c0.25771,-0.58386 0.54604,-1.10201 0.86132,-1.42188c0.31529,-0.31987 0.6014,-0.48242 1.16602,-0.48242a1.0001,1.0001 0 1 0 0,-2c-1.07337,0 -1.98302,0.46245 -2.5918,1.08008c-0.60878,0.61763 -0.97159,1.34948 -1.26562,2.01562c-0.27649,0.6264 -0.48926,1.17816 -0.67774,1.53907c-0.06138,-0.31461 -0.11938,-0.69183 -0.13476,-1.16797c-0.01924,-0.59555 -0.01146,-1.21357 -0.04883,-1.75391c-0.01869,-0.27017 -0.03692,-0.51463 -0.13281,-0.80859c-0.04795,-0.14699 -0.11171,-0.31666 -0.28516,-0.51172c-0.17345,-0.19507 -0.52859,-0.39258 -0.86328,-0.39258c-0.35832,0 -0.62688,0.1599 -0.79102,0.29492c-0.16413,0.13503 -0.26263,0.2643 -0.35156,0.39258c-0.17786,0.25656 -0.30951,0.52368 -0.45117,0.82422c-0.28333,0.60108 -0.58535,1.33007 -0.94336,2.03516c-0.35801,0.70508 -0.77407,1.37581 -1.20508,1.8164c-0.43101,0.44059 -0.80752,0.63672 -1.25781,0.63672c-0.33124,0 -0.53104,-0.10572 -0.74219,-0.26953c1.61624,-2.04605 2.74219,-4.42417 2.74219,-6.58984c0,-0.67888 -0.10367,-1.38785 -0.50977,-2.0254c-0.40609,-0.63754 -1.21383,-1.11523 -2.0996,-1.11523c-1.23279,0 -2.22766,0.8717 -2.71875,1.92969c-0.4911,1.05799 -0.67188,2.35682 -0.67188,3.80078c0,1.11673 0.1522,2.52556 0.68945,3.78711c0.0013,0.003 0.00456,0.00491 0.00586,0.00781c-1.43752,1.42062 -3.10868,2.47461 -4.69531,2.47461c-0.5958,0 -1.13732,-0.28625 -1.63867,-0.75c0.45311,-0.60747 0.49064,-0.51822 0.97851,-1.27539c1.80233,-2.79722 3.66016,-6.50149 3.66016,-10.29688c0,-0.84414 -0.12509,-1.91629 -0.70703,-2.89453c-0.58194,-0.97824 -1.75063,-1.7832 -3.29297,-1.7832zm0,2c0.94666,0 1.27841,0.30743 1.57422,0.80469c0.29581,0.49726 0.42578,1.26319 0.42578,1.87304c0,3.12062 -1.64217,6.57811 -3.33984,9.2129c-0.251,0.38954 -0.25484,0.30483 -0.5,0.65429c-0.72564,-1.50484 -1.16016,-3.53623 -1.16016,-5.44531c0,-2.21511 0.37515,-4.11714 0.96875,-5.36133c0.5936,-1.24419 1.24905,-1.73828 2.03125,-1.73828zm8.39063,5c0.31822,0 0.3142,0.03575 0.4121,0.18945c0.09791,0.15371 0.19727,0.51505 0.19727,0.95118c0,1.19101 -0.71049,2.81775 -1.6875,4.35742c-0.12093,-0.61683 -0.3125,-1.23131 -0.3125,-1.76758c0,-1.26004 0.19343,-2.32797 0.48633,-2.95899c0.2929,-0.63101 0.49308,-0.77148 0.9043,-0.77148z"/>
 </g>
</svg>
